<svg width="20" height="20" viewBox="0 0 20 20" fill="none" xmlns="http://www.w3.org/2000/svg">
<path d="M5.90909 0C2.65 0 0 2.65 0 5.90909V14.0909C0 17.35 2.65 20 5.90909 20H14.0909C17.35 20 20 17.35 20 14.0909V5.90909C20 2.65 17.35 0 14.0909 0H5.90909ZM15.4545 3.63636C15.9545 3.63636 16.3636 4.04545 16.3636 4.54545C16.3636 5.04545 15.9545 5.45455 15.4545 5.45455C14.9545 5.45455 14.5455 5.04545 14.5455 4.54545C14.5455 4.04545 14.9545 3.63636 15.4545 3.63636ZM10 5C12.7591 5 15 7.24091 15 10C15 12.7591 12.7591 15 10 15C7.24091 15 5 12.7591 5 10C5 7.24091 7.24091 5 10 5ZM10 5.90909C7.74545 5.90909 5.90909 7.74545 5.90909 10C5.90909 12.2545 7.74545 14.0909 10 14.0909C12.2545 14.0909 14.0909 12.2545 14.0909 10C14.0909 7.74545 12.2545 5.90909 10 5.90909Z" fill="white"/>
</svg>
