<svg width="90" height="90" viewBox="0 0 90 90" fill="none" xmlns="http://www.w3.org/2000/svg">
<g clip-path="url(#clip0_30_317)">
<path d="M39.375 36.5625C54.908 36.5625 67.5 30.2665 67.5 22.5C67.5 14.7335 54.908 8.4375 39.375 8.4375C23.842 8.4375 11.25 14.7335 11.25 22.5C11.25 30.2665 23.842 36.5625 39.375 36.5625Z" stroke="black" stroke-width="2" stroke-miterlimit="10" stroke-linecap="round" stroke-linejoin="round"/>
<path d="M39.375 39.375C56.4613 39.375 70.3125 31.8198 70.3125 22.5C70.3125 13.1802 56.4613 5.625 39.375 5.625C22.2887 5.625 8.4375 13.1802 8.4375 22.5C8.4375 31.8198 22.2887 39.375 39.375 39.375Z" fill="#0077B6"/>
<path d="M39.375 67.5C25.875 67.5 14.625 63.5625 8.4375 57.375V67.5C8.4375 77.0625 21.9375 84.375 39.375 84.375C41.9063 84.375 44.4375 84.0937 46.9688 83.8125C42.75 79.5937 40.2188 73.6875 39.375 67.5Z" fill="#0077B6"/>
<path d="M8.4375 34.875V45C8.4375 54.5625 21.9375 61.875 39.375 61.875C39.375 61.875 39.375 61.875 39.6563 61.875C40.2188 55.125 43.5938 48.9375 48.0938 44.4375C45.2812 44.7188 42.4688 45 39.375 45C25.875 45 14.625 41.0625 8.4375 34.875Z" fill="#0077B6"/>
<path d="M89.1563 58.7812C88.875 57.375 87.1875 56.5312 85.7812 56.8125C83.8125 57.375 82.4063 56.8125 82.125 56.25C81.8438 55.6875 82.125 54.2812 83.5313 52.5937C84.6563 51.4687 84.6563 49.7812 83.5313 48.6562C80.7188 45.8437 77.3438 43.875 73.4063 42.75C72 42.4687 70.3125 43.3125 70.0312 44.7187C69.4687 46.6875 68.3438 47.5312 67.5 47.5312C66.6562 47.5312 65.8125 46.4062 64.9688 44.7187C64.4063 43.3125 63 42.4687 61.5937 42.75C57.6562 43.875 54.2812 45.8437 51.4687 48.6562C50.3437 49.7812 50.3437 51.4687 51.4687 52.5937C52.875 54 53.1562 55.4062 52.875 56.25C52.5937 56.8125 51.1875 57.375 49.2188 56.8125C47.8125 56.5312 46.125 57.375 45.8437 58.7812C45.2812 60.75 45 62.7187 45 64.6875C45 66.6562 45.2812 68.625 45.8437 70.5937C46.125 72 47.8125 72.8437 49.2188 72.5625C51.1875 72 52.5937 72.5625 52.875 73.125C53.1562 73.6875 52.875 75.0937 51.4687 76.7812C50.3437 77.9062 50.3437 79.5937 51.4687 80.7187C54.2812 83.5312 57.6562 85.5 61.5937 86.625C63 86.9062 64.6875 86.0625 64.9688 84.6562C65.5313 82.6875 66.6562 81.8437 67.5 81.8437C68.3438 81.8437 69.1875 82.9687 70.0312 84.6562C70.3125 85.7812 71.4375 86.625 72.8437 86.625C73.125 86.625 73.4063 86.625 73.6875 86.625C77.625 85.5 81 83.5312 83.8125 80.7187C84.9375 79.5937 84.9375 77.9062 83.8125 76.7812C82.4062 75.375 82.125 73.9687 82.4062 73.125C82.6875 72.5625 84.0938 72 86.0625 72.5625C87.4688 72.8437 89.1562 72 89.4375 70.5937C90 68.625 90.2812 66.6562 90.2812 64.6875C90.2812 62.7187 89.7188 60.75 89.1563 58.7812ZM67.5 73.125C62.7188 73.125 59.0625 69.4687 59.0625 64.6875C59.0625 59.9062 62.7188 56.25 67.5 56.25C72.2812 56.25 75.9375 59.9062 75.9375 64.6875C75.9375 69.4687 72.2812 73.125 67.5 73.125Z" fill="#0077B6"/>
</g>
<defs>
<clipPath id="clip0_30_317">
<rect width="90" height="90" rx="15" fill="white"/>
</clipPath>
</defs>
</svg>
