<svg width="90" height="90" viewBox="0 0 90 90" fill="none" xmlns="http://www.w3.org/2000/svg">
<g clip-path="url(#clip0_30_307)">
<path fill-rule="evenodd" clip-rule="evenodd" d="M5.50024 0H84.492C85.9934 0 87.3704 0.646606 88.3665 1.68118L88.3738 1.68878L88.3811 1.69639L88.3884 1.704C89.3845 2.74618 89.9998 4.16871 89.9998 5.72817V84.2946C89.9998 85.8693 89.3772 87.2995 88.3811 88.334C87.385 89.3686 86.0081 90.0152 84.492 90.0152H5.50024C3.99878 90.0152 2.62183 89.3762 1.61841 88.334L1.61108 88.3264L1.60376 88.3188L1.59644 88.3112C0.600342 87.269 -0.0148926 85.8465 -0.0148926 84.287V5.71296C-0.0148926 4.13828 0.600342 2.70814 1.59644 1.67357C1.65503 1.61271 1.71362 1.55186 1.77954 1.49861C2.77564 0.570535 4.07935 0 5.50024 0ZM21.1008 42.2652L25.6638 41.9686C25.759 42.7369 25.9641 43.3226 26.2717 43.7182C26.7698 44.3724 27.4729 44.6995 28.3958 44.6995C29.0769 44.6995 29.6116 44.5322 29.9778 44.1974C30.3513 43.8627 30.5344 43.4748 30.5344 43.0336C30.5344 42.6152 30.3586 42.2424 30.0071 41.9077C29.6555 41.573 28.8352 41.2687 27.5535 40.972C25.4441 40.4852 23.95 39.831 23.0491 39.0094C22.1409 38.1954 21.6941 37.1608 21.6941 35.8981C21.6941 35.0689 21.9285 34.2854 22.3899 33.5475C22.8513 32.8096 23.5471 32.2238 24.4773 31.8054C25.4075 31.387 26.6819 31.174 28.3005 31.174C30.2854 31.174 31.8015 31.5544 32.8416 32.3303C33.8816 33.0986 34.5042 34.3234 34.7019 35.997L30.1829 36.2784C30.0657 35.5481 29.8093 35.008 29.4285 34.6809C29.0403 34.3462 28.5056 34.1789 27.8318 34.1789C27.2751 34.1789 26.8503 34.3006 26.5647 34.544C26.2791 34.7874 26.1399 35.0917 26.1399 35.4416C26.1399 35.7003 26.2571 35.9285 26.4841 36.1339C26.7039 36.3469 27.2385 36.5447 28.0881 36.7272C30.1902 37.1989 31.6917 37.6781 32.5999 38.1574C33.5081 38.6366 34.1746 39.23 34.5847 39.9451C34.9949 40.6525 35.2073 41.4513 35.2073 42.3337C35.2073 43.3683 34.929 44.3268 34.3796 45.2016C33.823 46.0764 33.0613 46.7382 32.0652 47.1947C31.0764 47.6435 29.8313 47.8717 28.3225 47.8717C25.6785 47.8717 23.8474 47.3392 22.8293 46.2818C21.8113 45.232 21.2327 43.8932 21.1008 42.2652ZM37.6536 31.4479H50.5149V34.9015H42.4802V37.4727H49.929V40.7666H42.4802V43.9464H50.7566V47.6054H37.6536V31.4479ZM52.7781 39.5419C52.7781 36.9022 53.4812 34.8483 54.9021 33.3877C56.3157 31.9195 58.2859 31.1816 60.8127 31.1816C63.3982 31.1816 65.3977 31.9043 66.7966 33.3421C68.1956 34.7874 68.8987 36.8109 68.8987 39.405C68.8987 41.2915 68.5911 42.8358 67.9832 44.0453C67.3679 45.2548 66.4817 46.1905 65.3318 46.8676C64.1746 47.537 62.7317 47.8717 61.0032 47.8717C59.2527 47.8717 57.7952 47.5826 56.6453 47.0045C55.4954 46.4187 54.5652 45.5059 53.8474 44.2507C53.137 43.0031 52.7781 41.4285 52.7781 39.5419ZM57.5828 39.5495C57.5828 41.1774 57.8757 42.3489 58.4617 43.064C59.0476 43.7715 59.846 44.129 60.8494 44.129C61.8821 44.129 62.6877 43.7791 63.2517 43.0868C63.823 42.387 64.1013 41.1394 64.1013 39.3289C64.1013 37.8075 63.801 36.6968 63.2151 35.997C62.6218 35.2971 61.8235 34.9472 60.8054 34.9472C59.8386 34.9472 59.0549 35.3047 58.469 36.0122C57.8757 36.7272 57.5828 37.9063 57.5828 39.5495ZM48.1858 75.1204C47.0286 75.1204 46.0911 74.0631 46.0911 72.7546C46.0911 71.4462 47.0286 70.3888 48.1858 70.3888H73.9817C75.1389 70.3888 76.0764 71.4462 76.0764 72.7546C76.0764 74.0631 75.1389 75.1204 73.9817 75.1204H48.1858ZM15.2488 75.1204C14.1062 75.1204 13.176 74.0631 13.176 72.7546C13.176 71.4462 14.1062 70.3888 15.2488 70.3888H39.1624C40.3049 70.3888 41.2351 71.4462 41.2351 72.7546C41.2351 74.0631 40.3049 75.1204 39.1624 75.1204H15.2488ZM14.4211 64.7824C13.2786 64.7824 12.3484 63.725 12.3484 62.4165C12.3484 61.1081 13.2786 60.0507 14.4211 60.0507H38.3347C39.4773 60.0507 40.4075 61.1081 40.4075 62.4165C40.4075 63.725 39.4773 64.7824 38.3347 64.7824H14.4211ZM48.1858 64.7824C47.0286 64.7824 46.0911 63.725 46.0911 62.4165C46.0911 61.1081 47.0286 60.0507 48.1858 60.0507H73.9817C75.1389 60.0507 76.0764 61.1081 76.0764 62.4165C76.0764 63.725 75.1389 64.7824 73.9817 64.7824H48.1858ZM12.8831 26.45H75.8274V52.048H12.8831V26.45ZM85.0266 20.486C84.8582 20.5164 84.6751 20.5317 84.4993 20.5317H5.50757C5.32446 20.5317 5.14868 20.5164 4.98023 20.486V84.2794C4.98023 84.4316 5.03882 84.5685 5.12671 84.6674L5.13403 84.675C5.22925 84.7739 5.36108 84.8272 5.50757 84.8272H84.4993C84.6384 84.8272 84.7703 84.7663 84.8728 84.6598C84.968 84.5609 85.0339 84.424 85.0339 84.2718L85.0266 20.486ZM36.7087 7.37892C38.6863 7.37892 40.283 9.04488 40.283 11.0912C40.283 13.1451 38.679 14.8035 36.7087 14.8035C34.7312 14.8035 33.1345 13.1375 33.1345 11.0912C33.1345 9.04488 34.7385 7.37892 36.7087 7.37892ZM24.2063 7.37892C26.1838 7.37892 27.7805 9.04488 27.7805 11.0912C27.7805 13.1451 26.1765 14.8035 24.2063 14.8035C22.2288 14.8035 20.6321 13.1375 20.6321 11.0912C20.6321 9.04488 22.2361 7.37892 24.2063 7.37892ZM11.7112 7.37892C13.6887 7.37892 15.2854 9.04488 15.2854 11.0912C15.2854 13.1451 13.6814 14.8035 11.7112 14.8035C9.73364 14.8035 8.13696 13.1375 8.13696 11.0912C8.13696 9.04488 9.73364 7.37892 11.7112 7.37892Z" fill="#0077B6"/>
</g>
<defs>
<clipPath id="clip0_30_307">
<rect width="90" height="90" fill="white"/>
</clipPath>
</defs>
</svg>
