<svg width="22" height="22" viewBox="0 0 22 22" fill="none" xmlns="http://www.w3.org/2000/svg">
<path d="M21.5 0.5H0.5V21.5H21.5V0.5ZM7.5 16.8333H4.5565V8.66667H7.5V16.8333ZM5.97633 7.16983C5.07683 7.16983 4.476 6.57017 4.476 5.76983C4.476 4.9695 5.07567 4.36983 6.0755 4.36983C6.975 4.36983 7.57583 4.9695 7.57583 5.76983C7.57583 6.57017 6.97617 7.16983 5.97633 7.16983ZM18 16.8333H15.151V12.3697C15.151 11.1353 14.3915 10.8507 14.1068 10.8507C13.8222 10.8507 12.8725 11.0408 12.8725 12.3697C12.8725 12.5598 12.8725 16.8333 12.8725 16.8333H9.929V8.66667H12.8725V9.8065C13.2517 9.1415 14.0112 8.66667 15.4357 8.66667C16.8602 8.66667 18 9.8065 18 12.3697V16.8333Z" fill="white"/>
</svg>
