<svg id="visual" viewBox="0 0 900 600" width="900" height="600" xmlns="http://www.w3.org/2000/svg" xmlns:xlink="http://www.w3.org/1999/xlink" version="1.1"><path d="M0 85L21.5 90C43 95 86 105 128.8 127.5C171.7 150 214.3 185 257.2 196.7C300 208.3 343 196.7 385.8 178.2C428.7 159.7 471.3 134.3 514.2 140.2C557 146 600 183 642.8 187.5C685.7 192 728.3 164 771.2 145.7C814 127.3 857 118.7 878.5 114.3L900 110L900 0L878.5 0C857 0 814 0 771.2 0C728.3 0 685.7 0 642.8 0C600 0 557 0 514.2 0C471.3 0 428.7 0 385.8 0C343 0 300 0 257.2 0C214.3 0 171.7 0 128.8 0C86 0 43 0 21.5 0L0 0Z" fill="#0066FF" stroke-linecap="round" stroke-linejoin="miter"></path></svg>