<svg width="90" height="90" viewBox="0 0 90 90" fill="none" xmlns="http://www.w3.org/2000/svg">
<path d="M8.4375 30.9375H81.5625" stroke="#0077B6" stroke-width="2" stroke-miterlimit="10" stroke-linecap="round" stroke-linejoin="round"/>
<path d="M19.6875 25.3125C18.8438 25.3125 18.2813 25.0312 17.7188 24.4687C17.1563 23.9062 16.875 23.3438 16.875 22.5C16.875 21.6562 17.1563 21.0938 17.7188 20.5313L18 20.25C18.2813 20.25 18.2812 19.9687 18.5625 19.9687C18.8437 19.6875 18.8438 19.6875 19.125 19.6875C19.4063 19.6875 19.9687 19.6875 20.25 19.6875C20.5312 19.6875 20.5313 19.6875 20.8125 19.9687C21.0938 19.9687 21.0937 20.25 21.375 20.25L21.6562 20.5313C21.9375 20.8125 22.2188 21.0937 22.2188 21.375C22.5 21.6562 22.5 22.2188 22.5 22.5C22.5 22.7812 22.5 23.3437 22.2188 23.625C22.2188 23.9062 21.9375 24.1875 21.6562 24.4687C21.0937 25.0312 20.5312 25.3125 19.6875 25.3125Z" fill="#0077B6"/>
<path d="M28.125 25.3125C27.2812 25.3125 26.7188 25.0313 26.1563 24.4688C25.5938 23.9063 25.3125 23.3438 25.3125 22.5C25.3125 22.2188 25.3125 21.6563 25.5938 21.375C25.875 21.0938 25.875 20.8125 26.1563 20.5313C26.4375 20.25 26.7188 19.9688 27 19.9688C28.125 19.4063 29.25 19.6875 30.0937 20.5313C30.375 20.8125 30.6562 21.0938 30.6562 21.375C30.9375 21.6563 30.9375 22.2188 30.9375 22.5C30.9375 23.3438 30.6562 23.9063 30.0937 24.4688C29.5312 25.0313 28.9688 25.3125 28.125 25.3125Z" fill="#0077B6"/>
<path d="M36.5625 25.3125C36.2812 25.3125 35.7188 25.3125 35.4375 25.0312C35.1563 24.75 34.875 24.75 34.5938 24.4687C34.3125 24.1875 34.0313 23.9062 34.0313 23.625C33.75 23.3437 33.75 22.7812 33.75 22.5C33.75 22.2187 33.75 21.6562 34.0313 21.375C34.3125 21.0937 34.3125 20.8125 34.5938 20.5313C35.7188 19.4063 37.4062 19.4063 38.5312 20.5313C38.8125 20.8125 39.0937 21.0937 39.0937 21.375C39.375 21.6562 39.375 22.2187 39.375 22.5C39.375 22.7812 39.375 23.3437 39.0937 23.625C38.8125 23.9062 38.8125 24.1875 38.5312 24.4687C37.9687 25.0312 37.4062 25.3125 36.5625 25.3125Z" fill="#0077B6"/>
<path d="M75.9375 14.0625H14.0625C10.9687 14.0625 8.4375 16.5937 8.4375 19.6875V70.3125C8.4375 73.4063 10.9687 75.9375 14.0625 75.9375H75.9375C79.0313 75.9375 81.5625 73.4063 81.5625 70.3125V19.6875C81.5625 16.5937 79.0313 14.0625 75.9375 14.0625Z" stroke="#0077B6" stroke-width="2" stroke-miterlimit="10" stroke-linecap="round" stroke-linejoin="round"/>
<path d="M30.9375 45L22.5 53.4375L30.9375 61.875" stroke="#0077B6" stroke-width="2" stroke-miterlimit="10" stroke-linecap="round" stroke-linejoin="round"/>
<path d="M59.0625 45L67.5 53.4375L59.0625 61.875" stroke="#0077B6" stroke-width="2" stroke-miterlimit="10" stroke-linecap="round" stroke-linejoin="round"/>
<path d="M50.625 42.1875L39.375 64.6875" stroke="#0077B6" stroke-width="2" stroke-miterlimit="10" stroke-linecap="round" stroke-linejoin="round"/>
</svg>
