<svg version="1" xmlns="http://www.w3.org/2000/svg" width="400" height="456" viewBox="0 0 300 342"><g fill="#353535"><path d="M123 1.1C63.8 5.9 19.2 24 5.8 48.7-.2 59.6 0 55.7 0 171s-.2 111.4 5.8 122.3c9.6 17.7 36.8 32.9 73.4 41.1 61.5 13.8 137.1 8 182.3-14 16.9-8.2 29.9-20.3 34.8-32.4l2.2-5.5v-223l-2.2-5.5c-6.5-16-25.4-30.4-52.3-39.8C212 3 163.8-2.2 123 1.1zm65.3 22.4c44.6 5.9 76.1 18.6 86.1 34.8 14.4 23.3-17.5 46.7-76.2 55.7-57.7 8.9-123.8.9-157.2-19-14.2-8.4-21.7-20.1-19.1-29.8C27.8 43 69.1 26.4 130.5 21.6c10.2-.8 46.4.4 57.8 1.9zM27.7 111.7c46.1 29.5 147.4 35.9 214.2 13.6 10.7-3.5 24.6-10.1 31.4-14.7 2.1-1.4 4-2.6 4.2-2.6.3 0 .5 9.3.5 20.7v20.8l-3 5.1c-4.1 7.3-10.8 12.6-23.5 18.9-24.9 12.3-59.6 18.7-101.5 18.7-54.9 0-101-11.7-120.1-30.6-8-7.9-8.4-9.2-8.7-32.9-.2-11.4-.1-20.7.2-20.7.3 0 3.1 1.6 6.3 3.7zm.1 62c6 4.9 21.4 12.7 31.9 16.2 27.4 9.2 64.4 13.9 99.8 12.7 49.2-1.5 89.8-12 112-28.7l6.5-5v44.6l-3 5.1c-10.2 17.8-44.7 31.4-93 36.5-16.6 1.8-52.6 1.5-69.5-.6-44.4-5.3-77-18.2-87.5-34.6l-3.5-5.3-.3-22.8c-.2-12.6-.1-22.8.2-22.8.4 0 3.2 2.1 6.4 4.7zm-2.7 61.9c7 7.5 28.5 17.4 48.7 22.5 69.2 17.5 160.3 8.2 197.8-20.2l6.4-4.8v21.7c0 21.5 0 21.9-2.6 27-3.6 7.3-11.1 13.4-23.9 19.7-42.1 20.7-116.6 25.3-173.4 10.9-22.3-5.7-39.2-13.7-48.4-22.8-7.9-7.9-8.2-9.1-8.5-34.4-.2-12.3.1-22.2.6-22.2s1.9 1.2 3.3 2.6z"/><path d="M240.4 140.9c-9 5.5-4.7 19.1 5.9 19.1 10.5 0 13.6-15 4-19.9-3.2-1.6-6.4-1.4-9.9.8zm.9 63.5c-3.9 1.8-5.6 4.8-5.6 10 0 8.7 11.1 13 17.4 6.7 8.1-8.2-1.2-21.4-11.8-16.7zm.2 63.9c-6.5 3-7.9 12.2-2.6 16.9 4.4 4 10.2 3.9 14.2-.1 7.9-8-1.4-21.4-11.6-16.8z"/></g></svg>