<?xml version="1.0" ?><svg viewBox="0 0 22.105 22.105" xmlns="http://www.w3.org/2000/svg"><defs><style>.cls-1{fill:#1a171b;}</style></defs><g data-name="Layer 2" id="Layer_2"><g data-name="Layer 1" id="Layer_1-2"><path class="cls-1" d="M14.406,10.389l-.649-.895,1.092-.174c.4-.089.3-.639.334-.946-.037-.306.071-.858-.334-.947l-1.093-.173.65-.894c.244-.51-.612-1.031-.946-1.341-.29-.254-.81.356-1.288.651L12,4.577c-.165-.526-1.181-.3-1.617-.278-.381.029-.316.793-.45,1.37l-.9-.65C8.526,4.776,8,5.638,7.7,5.968c-.253.29.358.811.651,1.286l-1.092.173c-.405.091-.3.63-.333.947.037.317-.072.854.333.946l1.092.174-.65.895c-.244.509.615,1.031.946,1.34.29.254.811-.357,1.288-.651l.174,1.093c.094.405.626.294.947.332.321-.038.854.073.946-.332l.174-1.093.895.65c.51.244,1.032-.616,1.34-.947A.335.335,0,0,0,14.406,10.389Zm-1.148.65-.856-.622c-.209-.161-.427.032-.635.092-.315.056-.282.861-.391,1.309a3.69,3.69,0,0,1-.648,0c-.11-.45-.076-1.253-.391-1.309-.208-.06-.427-.254-.635-.092l-.857.621a3.425,3.425,0,0,1-.458-.459l.621-.856c.161-.208-.031-.425-.091-.633-.055-.317-.856-.282-1.31-.392a3.34,3.34,0,0,1,0-.648c.453-.11,1.254-.075,1.31-.392.06-.208.252-.426.091-.634l-.622-.856a3.554,3.554,0,0,1,.459-.459L9.7,6.33c.208.16.426-.03.634-.091.316-.056.282-.857.392-1.31a3.34,3.34,0,0,1,.648,0c.11.452.075,1.254.391,1.31.209.06.427.253.635.092l.856-.622a3.492,3.492,0,0,1,.459.459l-.622.856c-.161.209.031.426.093.635.055.315.86.282,1.309.391a3.34,3.34,0,0,1,0,.648c-.452.11-1.254.075-1.309.391-.062.208-.254.426-.093.634l.622.857A3.554,3.554,0,0,1,13.258,11.039ZM11.052,7.033a1.34,1.34,0,0,0,0,2.68A1.34,1.34,0,0,0,11.052,7.033Zm0,2.01a.67.67,0,0,1,0-1.34A.67.67,0,0,1,11.052,9.043ZM20.877,0H1.228A1.23,1.23,0,0,0,0,1.228V18.2a1.23,1.23,0,0,0,1.228,1.228H6.7v2.01H4.354a.335.335,0,1,0,0,.669h13.4a.335.335,0,0,0,0-.669H15.406v-2.01h5.471A1.23,1.23,0,0,0,22.105,18.2V1.228A1.23,1.23,0,0,0,20.877,0ZM.67,1.228A.558.558,0,0,1,1.228.67H20.877a.558.558,0,0,1,.558.558V16.077H.67ZM14.736,21.436H7.368v-2.01h7.368Zm6.7-3.238a.558.558,0,0,1-.558.558H1.228A.558.558,0,0,1,.67,18.2V16.747H21.435ZM3.237,9.824A1.45,1.45,0,0,0,4.645,8.709c.59-.047,1.378.18,1.383-.335a.335.335,0,0,0-.335-.335H4.645A1.45,1.45,0,1,0,3.237,9.824Zm0-2.232a.781.781,0,0,1,0,1.562A.781.781,0,0,1,3.237,7.592Zm0-2.233A1.451,1.451,0,0,0,4.645,4.242h1.8l.635.634c.3.312.786-.17.473-.473L6.823,3.67c-.064-.194-1.854-.061-2.178-.1A1.45,1.45,0,1,0,3.237,5.359Zm0-2.233a.781.781,0,0,1,0,1.562A.781.781,0,0,1,3.237,3.126ZM7.082,11.87l-.635.634h-1.8a1.45,1.45,0,1,0,0,.67c.32-.036,2.114.1,2.178-.1l.732-.732C7.867,12.041,7.385,11.558,7.082,11.87ZM3.237,13.621a.782.782,0,0,1,0-1.563A.782.782,0,0,1,3.237,13.621Zm15.63-6.7a1.449,1.449,0,0,0-1.408,1.116c-.59.046-1.378-.181-1.384.335a.336.336,0,0,0,.335.335h1.048a1.45,1.45,0,1,0,1.409-1.786Zm0,2.232a.781.781,0,0,1,0-1.562A.781.781,0,0,1,18.867,9.154Zm0,2.234A1.452,1.452,0,0,0,17.458,12.5h-1.8l-.635-.634a.335.335,0,0,0-.473.474l.733.732c.062.194,1.859.061,2.178.1a1.449,1.449,0,1,0,1.408-1.786Zm0,2.233a.782.782,0,0,1,0-1.563A.782.782,0,0,1,18.867,13.621Zm0-11.165a1.452,1.452,0,0,0-1.409,1.116c-.32.036-2.114-.1-2.177.1l-.733.733c-.312.3.171.785.473.473l.635-.634h1.8a1.449,1.449,0,1,0,1.408-1.786Zm0,2.232a.781.781,0,0,1,0-1.562A.781.781,0,0,1,18.867,4.688Z" id="software"/></g></g></svg>