<?xml version="1.0" ?><!DOCTYPE svg  PUBLIC '-//W3C//DTD SVG 1.1//EN'  'http://www.w3.org/Graphics/SVG/1.1/DTD/svg11.dtd'><svg height="2.7092mm" style="shape-rendering:geometricPrecision; text-rendering:geometricPrecision; image-rendering:optimizeQuality; fill-rule:evenodd; clip-rule:evenodd" version="1.1" viewBox="0 0 270.92 270.92" width="2.7092mm" xml:space="preserve" xmlns="http://www.w3.org/2000/svg" xmlns:xlink="http://www.w3.org/1999/xlink"><defs><style type="text/css">
   <![CDATA[
    .fil0 {fill:black;fill-rule:nonzero}
   ]]>
  </style></defs><g id="Layer_x0020_1"><path class="fil0" d="M218.45 19.42l-166.77 0c-4.37,0 -7.93,3.58 -7.93,7.95 0,4.38 3.56,7.93 7.93,7.93l166.77 0c11.12,0 20.17,9.06 20.17,20.17l0 82.99 -63.48 0c-4.39,0 -7.93,3.57 -7.93,7.95 0,4.38 3.54,7.93 7.93,7.93l63.48 0 0 3.63c0,11.13 -9.05,20.17 -20.17,20.17l-165.98 0c-11.11,0 -20.17,-9.04 -20.17,-20.17l0 -3.63 63.48 0c4.39,0 7.93,-3.55 7.93,-7.93 0,-4.38 -3.54,-7.95 -7.93,-7.95l-63.48 0 0 -83.77c0,-4.37 -3.56,-7.93 -7.95,-7.93 -4.38,0 -7.93,3.56 -7.93,7.93l0 103.28c0,19.89 16.18,36.05 36.05,36.05l75.06 0 0 41.6 -69.62 0c-4.4,0 -7.93,3.55 -7.93,7.94 0,4.37 3.53,7.94 7.93,7.94l156.91 0c4.39,0 7.93,-3.57 7.93,-7.94 0,-4.39 -3.54,-7.94 -7.93,-7.94l-71.43 0 0 -41.6 75.06 0c19.87,0 36.05,-16.16 36.05,-36.05l0 -102.5c0,-19.86 -16.18,-36.05 -36.05,-36.05zm-82.99 111.11c-4.81,0 -8.72,-3.91 -8.72,-8.72 0,-4.38 -3.55,-7.94 -7.94,-7.94 -4.38,0 -7.93,3.56 -7.93,7.94 0,10.77 7,19.84 16.66,23.16l0 4.51c0,4.37 3.55,7.93 7.93,7.93 4.39,0 7.93,-3.56 7.93,-7.93l0 -4.51c9.67,-3.32 16.66,-12.39 16.66,-23.16 0,-13.56 -11.02,-24.59 -24.59,-24.59 -4.81,0 -8.72,-3.91 -8.72,-8.71 0,-4.81 3.91,-8.72 8.72,-8.72 4.81,0 8.71,3.91 8.71,8.72 0,4.38 3.57,7.93 7.95,7.93 4.38,0 7.93,-3.55 7.93,-7.93 0,-10.77 -6.99,-19.84 -16.66,-23.17l0 -4.49c0,-4.4 -3.54,-7.94 -7.93,-7.94 -4.38,0 -7.93,3.54 -7.93,7.94l0 4.49c-9.66,3.33 -16.66,12.4 -16.66,23.17 0,13.57 11.02,24.57 24.59,24.57 4.81,0 8.71,3.92 8.71,8.73 0,4.81 -3.9,8.72 -8.71,8.72z"/></g></svg>