<svg enable-background="new 0 0 504 504" id="Layer_1" version="1.1" viewBox="0 0 504 504" xml:space="preserve" xmlns="http://www.w3.org/2000/svg" xmlns:xlink="http://www.w3.org/1999/xlink"><path d="M459.7,256.7c-9.2,58.5-27.1,75.6-58.8,114.9c-31.7,33.3-77.3,88.9-141.9,85.8  c-58.5-9.2-75.6-27.1-114.9-58.8c-33.3-31.7-88.9-77.3-85.8-141.9c9.2-58.5,27.1-75.6,58.8-114.9C148.8,108.5,194.4,53,259,56  c58.5,9.2,75.6,27.1,114.9,58.8C407.2,146.5,462.8,192.1,459.7,256.7z" fill="#000000" id="id_146"></path><g><path d="M219.6,316.1l6.7-4l-7.5,2c-11.1,3.2-12.7,6.7-12.7,9.5c0.8,7.1,19,12.7,40,12.7c11.1,0,27.3-1.6,43.9-8.7   l2.4-0.8L290,326c-7.5-3.2-13.5-6.3-13.5-6.3l-0.4-0.4h-0.4c-13.5,2.4-21.8,3.6-30.5,3.6c-5.5,0-11.5-0.4-19.8-1.2   c-7.5-0.8-8.3-2.4-8.3-2.8C217.2,317.7,218.4,316.5,219.6,316.1z" fill="#ffffff" id="id_147"></path><path d="M297.5,300.7l-2.8-1.2c-5.9-2-9.5-5.9-9.9-5.9l-0.4-0.4h-0.4c-16.2,3.2-28.9,4.4-41.5,4.4   c-7.1,0-14.2-0.4-23.7-1.6c-6.3-0.8-7.9-2.4-7.9-3.2c-0.4-1.6,2-4,2.8-4.7l4.7-3.6l-5.9,2c-9.9,3.2-14.6,6.7-13.8,10.7   c1.2,6.7,18.6,11.1,42.7,11.1c17.8,0,36.8-2.8,53-7.5L297.5,300.7L297.5,300.7z" fill="#FFFFFF" id="id_148"></path><path d="M252,211.1c-3.2,9.9,0,21,9.9,32c3.2,3.6,4.7,7.5,4.4,11.5c-0.8,7.5-7.1,13.1-7.1,13.1l-7.1,5.9l8.3-4.4   c0.8-0.4,17-8.7,19.8-21.4c1.2-5.1,0-10.3-3.2-15l-1.6-2.4c-5.1-7.5-9.5-13.1-7.9-19.8c2-9.1,14.2-19.4,40-34.4l5.9-3.6l-6.7,1.6   C304.4,175.1,259.5,186.1,252,211.1z" fill="#FFFFFF" id="id_149"></path><path d="M239.8,360c52.6,0,90-9.9,92-19.4c0.4-1.6-0.4-4.4-5.1-6.7l-6.7-3.2l5.5,4.7c0,0,1.6,1.2,1.2,2.8   c-0.4,1.2-1.6,3.6-8.7,5.5c-13.8,4.7-45.5,7.9-76.9,7.9c-29.3,0-51.8-2.4-61.7-6.7c-1.2-0.4-2-1.2-2-1.6c0.4-2,8.7-5.5,14.6-6.7   c4-0.8,6.3-0.8,7.5-0.8c0.4,0,0.4,0,0.4,0l3.6,0.4l-2.8-2.8c-1.6-1.2-4-1.6-7.1-1.6c-11.5,0-33.2,7.9-34,15   c-0.4,3.6,4,6.3,13.1,7.5C195,358,217.6,360,239.8,360L239.8,360z" fill="#FFFFFF" id="id_150"></path><path d="M229.9,282.9c24.1,0,46.7-2.4,62.9-6.7h0.4c4.7-3.2,11.1-5.9,11.1-5.9l7.9-3.6l-8.7,2   c0,0-18.6,3.2-36.8,4.7c-12.7,1.2-26.1,1.6-37.6,1.6c-8.7,0-16.2-0.4-21-1.2c-8.7-1.2-8.7-2.8-8.7-2.8c0-2.4,12.7-6.7,24.5-9.9   l6.3-1.6l-6.3-0.4c0,0-0.8,0-1.6,0c-5.5,0-20.2,0.8-37.2,9.1c-1.6,0.8-5.5,2.8-5.1,5.5C180.8,280.9,207.3,282.9,229.9,282.9z" fill="#FFFFFF" id="id_151"></path><path d="M307.6,262.3l-1.6,2.8l2.8-1.2c0,0,1.6-0.8,5.1-1.2c0.8,0,1.6-0.4,2.8-0.4c5.5,0,12.3,3.6,13.8,10.3   c1.2,4.7,0.8,17.4-26.9,31.7h-0.4v0.4c0,0.4-0.4,0.8-0.8,0.8l-3.2,2.8l4-1.2c31.3-8.3,41.1-22.9,39.6-34c-1.2-9.5-9.9-16.2-21-16.2   c-3.2,0-6.3,0.4-9.5,1.6C309.2,259.9,307.6,262.3,307.6,262.3z" fill="#FFFFFF" id="id_152"></path><path d="M250.8,260.7l3.6,3.2l-2-4.4c-2-4.7-5.5-9.5-8.7-13.8c-10.7-15.4-21.8-30.9,8.3-54.6   c19.8-15.4,30.1-30.9,30.9-45.5c0.8-13.1-6.3-20.2-6.7-20.6l-2.4-2.8l0.8,3.6c6.7,26.5-11.5,40.7-29.3,54.6   c-8.7,7.1-17.8,14.2-23.7,22.6C209.7,220.9,228.7,240.5,250.8,260.7z" fill="#FFFFFF" id="id_153"></path><path d="M340.8,347c0,0-4,7.5-35.6,13.5c-18.2,3.6-39.6,5.1-61.7,5.1c-18.2,0-36-1.2-49.5-3.6l-3.6-0.8l3.2,2.4   c0.8,0.4,7.1,4.7,35.2,6.7c7.9,0.4,16.6,0.8,24.9,0.8l0,0c42.3,0,88.4-6.3,89.6-24.1l0.4-5.5L340.8,347z" fill="#FFFFFF" id="id_154"></path></g></svg>