<?xml version="1.0" encoding="iso-8859-1"?>
<!-- Generator: Adobe Illustrator 16.0.0, SVG Export Plug-In . SVG Version: 6.00 Build 0)  -->
<!DOCTYPE svg PUBLIC "-//W3C//DTD SVG 1.1//EN" "http://www.w3.org/Graphics/SVG/1.1/DTD/svg11.dtd">
<svg version="1.1" id="Capa_1" xmlns="http://www.w3.org/2000/svg" xmlns:xlink="http://www.w3.org/1999/xlink" x="0px" y="0px"
	 width="100px" height="100px" viewBox="0 0 100 100" style="enable-background:new 0 0 100 100;" xml:space="preserve">
<g>
	<g>
		<path d="M53.126,52.373c-0.282,0.012-0.567,0.164-0.858,0.453l-4.3,4.301l-2.592-2.592l3.829-3.828
			c0.286-0.286,0.432-0.562,0.438-0.83c0.006-0.268-0.094-0.505-0.301-0.712s-0.443-0.305-0.709-0.292
			c-0.265,0.013-0.539,0.16-0.82,0.441l-3.828,3.829l-2.237-2.236l4.158-4.158c0.295-0.294,0.448-0.578,0.46-0.852
			c0.012-0.274-0.088-0.518-0.304-0.733c-0.211-0.212-0.454-0.312-0.727-0.299c-0.273,0.013-0.557,0.167-0.852,0.461l-4.873,4.873
			c-0.262,0.261-0.437,0.514-0.528,0.757c-0.092,0.245-0.092,0.49-0.003,0.736c0.09,0.246,0.267,0.502,0.532,0.769l6.849,6.849
			c0.397,0.396,0.774,0.599,1.128,0.6c0.354,0.002,0.731-0.198,1.134-0.6l5.014-5.016c0.291-0.292,0.44-0.577,0.455-0.859
			c0.013-0.281-0.09-0.529-0.305-0.744C53.661,52.466,53.407,52.359,53.126,52.373z"/>
		<path d="M43.284,59.275c-0.459-0.461-0.929-0.769-1.41-0.92c-0.481-0.154-0.971-0.188-1.469-0.104
			c-0.5,0.085-1.029,0.262-1.592,0.534c-0.561,0.271-1.157,0.604-1.792,0.997c-0.514,0.308-0.886,0.521-1.119,0.646
			c-0.232,0.123-0.483,0.226-0.751,0.305c-0.269,0.08-0.52,0.103-0.752,0.067c-0.232-0.032-0.439-0.141-0.622-0.323
			c-0.294-0.293-0.399-0.69-0.316-1.191c0.082-0.502,0.362-0.99,0.839-1.469c0.514-0.512,0.983-0.788,1.408-0.828
			c0.424-0.038,0.892,0.031,1.402,0.21c0.368,0.11,0.661,0.165,0.876,0.161c0.216-0.006,0.428-0.113,0.64-0.324
			c0.232-0.232,0.337-0.516,0.316-0.844c-0.02-0.332-0.141-0.609-0.36-0.828c-0.24-0.24-0.55-0.424-0.926-0.553
			c-0.376-0.129-0.814-0.174-1.314-0.136c-0.5,0.039-1.023,0.194-1.569,0.462c-0.547,0.271-1.1,0.686-1.66,1.244
			c-0.701,0.7-1.204,1.412-1.513,2.141c-0.309,0.728-0.404,1.422-0.289,2.084c0.116,0.664,0.425,1.246,0.926,1.748
			c0.526,0.524,1.096,0.836,1.71,0.932c0.613,0.095,1.242,0.023,1.889-0.211c0.646-0.237,1.374-0.605,2.181-1.105
			c0.601-0.378,1.097-0.662,1.488-0.855c0.393-0.192,0.774-0.286,1.148-0.283c0.374,0.006,0.711,0.158,1.013,0.46
			c0.381,0.383,0.528,0.871,0.442,1.468c-0.088,0.596-0.405,1.168-0.952,1.715c-0.397,0.396-0.781,0.653-1.153,0.773
			c-0.37,0.118-0.721,0.146-1.051,0.087c-0.329-0.062-0.696-0.178-1.103-0.353c-0.339-0.148-0.639-0.219-0.897-0.207
			c-0.26,0.011-0.487,0.113-0.681,0.308c-0.241,0.24-0.358,0.519-0.354,0.832c0.004,0.315,0.119,0.585,0.342,0.81
			c0.384,0.385,0.911,0.651,1.578,0.803c0.667,0.147,1.33,0.138,1.988-0.032c0.924-0.244,1.836-0.815,2.735-1.714
			c0.75-0.75,1.274-1.523,1.573-2.319c0.297-0.797,0.369-1.554,0.212-2.272C44.189,60.463,43.835,59.826,43.284,59.275z"/>
		<path d="M60.014,38.88c-0.953-0.954-1.959-1.609-3.014-1.968c-1.055-0.359-2.111-0.391-3.173-0.096
			c-1.06,0.295-2.063,0.915-3.009,1.858c-0.694,0.696-1.208,1.425-1.536,2.19c-0.329,0.765-0.48,1.543-0.451,2.334
			c0.029,0.791,0.234,1.58,0.619,2.364c0.382,0.785,0.924,1.527,1.624,2.228c0.684,0.684,1.417,1.224,2.197,1.62
			s1.567,0.613,2.363,0.654c0.797,0.043,1.59-0.104,2.385-0.438c0.793-0.334,1.547-0.855,2.26-1.569
			c0.718-0.717,1.24-1.465,1.57-2.244c0.332-0.778,0.479-1.569,0.438-2.373c-0.042-0.805-0.256-1.59-0.642-2.355
			C61.262,40.32,60.717,39.584,60.014,38.88z M59.747,44.946c-0.159,0.631-0.476,1.184-0.948,1.656
			c-0.367,0.37-0.773,0.639-1.222,0.811c-0.443,0.172-0.925,0.24-1.437,0.203c-0.517-0.037-1.048-0.199-1.597-0.488
			c-0.549-0.288-1.082-0.691-1.599-1.209c-0.516-0.514-0.913-1.042-1.194-1.584c-0.282-0.542-0.442-1.06-0.481-1.55
			c-0.039-0.49,0.027-0.962,0.201-1.414c0.176-0.452,0.445-0.862,0.815-1.231c0.517-0.518,1.103-0.851,1.751-1
			c0.65-0.148,1.329-0.087,2.033,0.187c0.703,0.273,1.389,0.744,2.057,1.411c0.723,0.722,1.21,1.445,1.471,2.17
			C59.857,43.635,59.906,44.313,59.747,44.946z"/>
		<path d="M50,0C22.386,0,0,22.386,0,50s22.386,50,50,50c27.613,0,50-22.386,50-50S77.613,0,50,0z M76.871,49.241L47.192,78.919
			c-1.442,1.44-3.781,1.44-5.222,0L21.082,58.03c-1.442-1.441-1.442-3.78,0-5.224L50.76,23.129c1.441-1.441,16.314-1.441,17.756,0
			l2.088,2.089l-2.623,2.623c-1.73-0.364-3.605,0.124-4.949,1.468c-2.115,2.115-2.115,5.545,0,7.659
			c2.115,2.115,5.545,2.115,7.658,0c1.346-1.344,1.834-3.218,1.47-4.949l2.622-2.623l2.089,2.089
			C78.312,32.928,78.312,47.799,76.871,49.241z M79.566,22.521l-11.14,11.141c-0.575,0.577-1.511,0.577-2.089,0
			c-0.576-0.577-0.576-1.512,0-2.088L77.48,20.433c0.574-0.577,1.512-0.577,2.088,0C80.145,21.008,80.145,21.943,79.566,22.521z"/>
	</g>
</g>
<g>
</g>
<g>
</g>
<g>
</g>
<g>
</g>
<g>
</g>
<g>
</g>
<g>
</g>
<g>
</g>
<g>
</g>
<g>
</g>
<g>
</g>
<g>
</g>
<g>
</g>
<g>
</g>
<g>
</g>
</svg>
