<?xml version="1.0" encoding="iso-8859-1"?>
<!-- Generator: Adobe Illustrator 16.0.0, SVG Export Plug-In . SVG Version: 6.00 Build 0)  -->
<!DOCTYPE svg PUBLIC "-//W3C//DTD SVG 1.1//EN" "http://www.w3.org/Graphics/SVG/1.1/DTD/svg11.dtd">
<svg version="1.1" id="Capa_1" xmlns="http://www.w3.org/2000/svg" xmlns:xlink="http://www.w3.org/1999/xlink" x="0px" y="0px"
	 width="106.048px" height="106.048px" viewBox="0 0 106.048 106.048" style="enable-background:new 0 0 106.048 106.048;"
	 xml:space="preserve">
<g>
	<path style="fill:#010002;" d="M84.838,0H21.209C9.538,0,0,9.543,0,21.209v63.629c0,11.666,9.538,21.21,21.209,21.21h63.628
		c11.661,0,21.21-9.544,21.21-21.21V21.209C106.048,9.543,96.499,0,84.838,0z M88.018,40.917c2.683,0,4.867,2.186,4.867,4.868
		c0,2.685-2.185,4.868-4.867,4.868c-2.672,0-4.878-2.183-4.878-4.868C83.14,43.103,85.335,40.917,88.018,40.917z M73.529,32.062
		c3.997,0,7.249,3.252,7.249,7.25c0,3.993-3.252,7.236-7.249,7.236c-3.987,0-7.239-3.244-7.239-7.236
		C66.29,35.314,69.542,32.062,73.529,32.062z M53.014,17.582c5.913,0,10.719,4.805,10.719,10.711
		c0,5.908-4.806,10.716-10.719,10.716c-5.903,0-10.711-4.808-10.711-10.716C42.308,22.393,47.11,17.582,53.014,17.582z
		 M32.508,32.062c3.998,0,7.239,3.252,7.239,7.25c0,3.993-3.241,7.236-7.239,7.236s-7.247-3.244-7.247-7.236
		C25.261,35.314,28.511,32.062,32.508,32.062z M18.027,40.917c2.683,0,4.868,2.186,4.868,4.868c0,2.685-2.185,4.868-4.868,4.868
		c-2.682,0-4.877-2.183-4.877-4.868C13.15,43.103,15.351,40.917,18.027,40.917z M18.276,60.926v15.192h-8.249V61.423
		c0-4.412,3.594-8.006,8.005-8.006c0.785,0,1.533,0.146,2.25,0.363C19.045,55.887,18.276,58.311,18.276,60.926z M33.564,58.657
		v23.11H20.927V60.926c0-6.385,5.196-11.581,11.581-11.581c1.142,0,2.216,0.217,3.251,0.525
		C34.401,52.521,33.564,55.479,33.564,58.657z M69.812,88.463H36.216V58.657c0-9.261,7.539-16.795,16.798-16.795
		c9.269,0,16.798,7.534,16.798,16.795V88.463z M85.107,81.772H72.463V58.657c0-3.179-0.839-6.131-2.195-8.782
		c1.045-0.308,2.122-0.526,3.262-0.526c6.39,0,11.578,5.191,11.578,11.581V81.772z M96.013,76.118h-8.259V60.926
		c0-2.615-0.756-5.039-1.999-7.146c0.729-0.217,1.471-0.363,2.263-0.363c4.412,0,7.995,3.594,7.995,8.006V76.118z"/>
</g>
<g>
</g>
<g>
</g>
<g>
</g>
<g>
</g>
<g>
</g>
<g>
</g>
<g>
</g>
<g>
</g>
<g>
</g>
<g>
</g>
<g>
</g>
<g>
</g>
<g>
</g>
<g>
</g>
<g>
</g>
</svg>
