<svg xmlns="http://www.w3.org/2000/svg" width="128" height="128" viewBox="0 0 128 128">
  <title>Web Layout</title>
  <path d="M114,15.25H14A9.761,9.761,0,0,0,4.25,25v77A10.762,10.762,0,0,0,15,112.75h98A10.762,10.762,0,0,0,123.75,102V25A9.761,9.761,0,0,0,114,15.25ZM120.25,25V36.683H52.888L61.37,18.75H114A6.257,6.257,0,0,1,120.25,25ZM14,18.75H57.5L49.016,36.683H7.75V25A6.257,6.257,0,0,1,14,18.75Zm99,90.5H15A7.258,7.258,0,0,1,7.75,102V40.183h112.5V102A7.258,7.258,0,0,1,113,109.25Z"/>
  <path d="M21.57,33.466a5.75,5.75,0,1,0-5.75-5.75A5.756,5.756,0,0,0,21.57,33.466Zm0-8a2.25,2.25,0,1,1-2.25,2.25A2.253,2.253,0,0,1,21.57,25.466Z"/>
  <path d="M37.626,33.466a5.75,5.75,0,1,0-5.75-5.75A5.756,5.756,0,0,0,37.626,33.466Zm0-8a2.25,2.25,0,1,1-2.25,2.25A2.253,2.253,0,0,1,37.626,25.466Z"/>
  <path d="M67.522,29.466h44.745a1.75,1.75,0,0,0,0-3.5H67.522a1.75,1.75,0,0,0,0,3.5Z"/>
  <path d="M110.067,50.966h-48a1.751,1.751,0,0,0-1.75,1.75v11a1.75,1.75,0,0,0,1.75,1.75h48a1.749,1.749,0,0,0,1.75-1.75v-11A1.75,1.75,0,0,0,110.067,50.966Zm-1.75,11h-44.5v-7.5h44.5Z"/>
  <path d="M51.651,52.4c-.01-.055-.026-.106-.041-.159a1.693,1.693,0,0,0-.052-.167,1.566,1.566,0,0,0-.071-.149c-.026-.052-.052-.1-.083-.154a1.622,1.622,0,0,0-.1-.132c-.036-.046-.07-.092-.11-.134a1.64,1.64,0,0,0-.139-.124c-.032-.027-.059-.059-.094-.084l-.027-.016a1.753,1.753,0,0,0-.168-.1c-.045-.024-.087-.052-.133-.072s-.108-.037-.163-.055a1.556,1.556,0,0,0-.164-.051c-.048-.011-.1-.013-.148-.02-.065-.008-.13-.018-.2-.02-.011,0-.021,0-.031,0h-32c-.01,0-.019,0-.029,0a1.693,1.693,0,0,0-.212.022c-.044.006-.089.008-.132.017a1.715,1.715,0,0,0-.181.056c-.049.017-.1.03-.146.05s-.093.05-.14.076a1.774,1.774,0,0,0-.163.095c-.008.006-.018.009-.027.016-.035.025-.062.057-.094.084a1.626,1.626,0,0,0-.138.124,1.578,1.578,0,0,0-.111.134,1.409,1.409,0,0,0-.1.132,1.649,1.649,0,0,0-.084.154,1.566,1.566,0,0,0-.071.149c-.021.055-.036.111-.052.167s-.031.1-.041.159a1.833,1.833,0,0,0-.02.2c0,.039-.011.077-.011.116v44c0,.04.009.077.011.116a1.851,1.851,0,0,0,.02.2c.01.054.026.106.041.159s.031.112.052.167a1.566,1.566,0,0,0,.071.149c.026.052.052.1.083.154s.065.089.1.132a1.578,1.578,0,0,0,.111.134,1.615,1.615,0,0,0,.138.123c.032.028.059.059.094.085l.021.01a1.749,1.749,0,0,0,.431.219c.034.012.067.022.1.032a1.789,1.789,0,0,0,.471.073H49.937a1.789,1.789,0,0,0,.471-.073c.035-.01.068-.02.1-.032a1.749,1.749,0,0,0,.431-.219c.007,0,.015-.006.021-.01.035-.026.062-.057.094-.085a1.628,1.628,0,0,0,.139-.123c.04-.042.074-.088.11-.134s.069-.086.1-.132.057-.1.083-.154a1.566,1.566,0,0,0,.071-.149,1.693,1.693,0,0,0,.052-.167c.015-.053.031-.105.041-.159a1.623,1.623,0,0,0,.02-.2c0-.039.012-.076.012-.116v-44c0-.039-.009-.077-.012-.116A1.607,1.607,0,0,0,51.651,52.4ZM19.683,58.1,31.768,74.716,19.683,91.334Zm1.686-3.632H46.5L33.933,71.741ZM33.933,77.692,46.5,94.966H21.369ZM36.1,74.716,48.183,58.1V91.334Z"/>
  <path d="M110.067,72.966h-48a1.75,1.75,0,1,0,0,3.5h48a1.75,1.75,0,0,0,0-3.5Z"/>
  <path d="M110.067,83.966h-48a1.75,1.75,0,1,0,0,3.5h48a1.75,1.75,0,0,0,0-3.5Z"/>
  <path d="M110.067,94.966h-48a1.75,1.75,0,1,0,0,3.5h48a1.75,1.75,0,0,0,0-3.5Z"/>
</svg>
