<svg width="1920" height="394" viewBox="0 0 1920 394" fill="none" xmlns="http://www.w3.org/2000/svg">
<path d="M0 0L32 23.423C64 46.7137 128 93.5597 192 110.895C256 128.363 320 116.453 384 105.602C448 94.883 512 85.0903 576 91.31C640 97.5297 704 119.497 768 127.437C832 135.377 896 129.29 960 131.672C1024 134.054 1088 145.17 1152 132.598C1216 120.026 1280 83.767 1344 73.445C1408 63.123 1472 78.4737 1536 84.2964C1600 89.9867 1664 86.0167 1728 87.737C1792 89.5897 1856 97.0004 1888 100.838L1920 104.543V397H1888C1856 397 1792 397 1728 397C1664 397 1600 397 1536 397C1472 397 1408 397 1344 397C1280 397 1216 397 1152 397C1088 397 1024 397 960 397C896 397 832 397 768 397C704 397 640 397 576 397C512 397 448 397 384 397C320 397 256 397 192 397C128 397 64 397 32 397H0V0Z" fill="#0066FF"/>
</svg>
